<svg width="169" height="48" viewBox="0 0 169 48" fill="none" xmlns="http://www.w3.org/2000/svg">
<path d="M45.612 20.61C45.51 20.2272 45.396 19.8516 45.2736 19.4784C44.8281 18.1179 44.2518 16.8037 43.5528 15.5544C41.6095 12.0749 38.7729 9.17696 35.3357 7.15972C31.8986 5.14248 27.9854 4.07898 24 4.07898C20.0146 4.07898 16.1014 5.14248 12.6643 7.15972C9.22709 9.17696 6.39049 12.0749 4.4472 15.5544C3.74823 16.8037 3.17194 18.1179 2.7264 19.4784C2.6064 19.8516 2.4864 20.2272 2.388 20.61C1.25847 24.7996 1.36904 29.227 2.70629 33.3551C4.04354 37.4831 6.55 41.1344 9.9216 43.866L11.5128 36.024C10.516 35.0835 9.6222 34.0396 8.8464 32.91C8.43945 32.3217 8.06645 31.7107 7.7292 31.08C7.21121 30.1184 6.77527 29.1148 6.426 28.08C5.93647 28.5528 5.63396 29.1864 5.574 29.8644C5.34203 29.4119 5.27032 28.8942 5.37058 28.3957C5.47084 27.8973 5.73714 27.4475 6.126 27.12C6.3306 26.947 6.56476 26.8125 6.8172 26.7228C7.22138 26.5785 7.6584 26.553 8.07665 26.6491C8.4949 26.7452 8.87692 26.959 9.1776 27.2652C9.23547 27.3236 9.28996 27.3853 9.3408 27.45L9.2496 27.4188C8.59752 27.215 7.89394 27.2525 7.2672 27.5244C8.19552 29.1095 9.33293 30.5626 10.6488 31.8444C11.1144 32.2956 11.5996 32.7224 12.1044 33.1248C15.4636 35.8294 19.6441 37.3086 23.9567 37.3187C28.2693 37.3287 32.4567 35.8689 35.8284 33.18C36.8876 32.3404 37.859 31.3956 38.7276 30.36C39.4724 29.4767 40.1408 28.5317 40.7256 27.5352C40.1067 27.2568 39.4084 27.2095 38.7576 27.402C38.7104 27.4156 38.6636 27.4312 38.6172 27.4488C38.6895 27.3552 38.7698 27.2681 38.8572 27.1884C39.2727 26.8025 39.8189 26.5881 40.386 26.5884C40.9308 26.5884 41.457 26.7863 41.8668 27.1452C42.1084 27.3564 42.3021 27.6169 42.4348 27.9091C42.5674 28.2014 42.636 28.5186 42.636 28.8396C42.6369 29.198 42.5508 29.5513 42.3852 29.8692C42.3274 29.2058 42.0366 28.5843 41.5644 28.1148C40.9838 29.8199 40.1714 31.4371 39.15 32.9208C38.3573 34.0735 37.4415 35.1366 36.4188 36.0912L38.0076 43.92C41.4016 41.1926 43.9281 37.5359 45.2785 33.3965C46.6288 29.2572 46.7447 24.8141 45.612 20.61ZM17.6664 16.6884C18.327 15.2542 19.4549 14.0866 20.8654 13.3768C22.2759 12.667 23.8856 12.457 25.431 12.781C26.9765 13.1051 28.3662 13.9441 29.3727 15.1607C30.3793 16.3773 30.9431 17.8996 30.972 19.4784H28.9128C28.9064 19.1962 28.875 18.9151 28.8192 18.6384C28.5896 17.5274 27.9832 16.53 27.1026 15.8149C26.222 15.0997 25.1213 14.7109 23.9869 14.7141C22.8525 14.7174 21.7541 15.1125 20.8776 15.8327C20.0011 16.5528 19.4004 17.5537 19.1772 18.666C19.1256 18.9323 19.0959 19.2024 19.0884 19.4736H17.028C17.045 18.5109 17.2624 17.5623 17.6664 16.6884ZM24 35.718C19.4244 35.718 15.3036 34.1196 12.4152 31.566L14.64 20.61H20.652L23.622 24.51C23.742 24.5196 23.8728 24.5244 24.0012 24.5244C24.1296 24.5244 24.2412 24.5244 24.3504 24.5112L27.3216 20.61H33.2808L35.52 31.626C32.6292 34.1448 28.5384 35.718 24 35.718Z" fill="#0D0D0D"/>
<path d="M59.488 27V9.72H64.336L69.616 26.376H67.912L73.192 9.72H78.064V27H74.992V10.752H75.496L70.36 27H67.024L61.936 10.896H62.416V27H59.488ZM86.7385 27.24C85.4425 27.24 84.2985 26.968 83.3065 26.424C82.3305 25.88 81.5705 25.128 81.0265 24.168C80.4825 23.192 80.2105 22.08 80.2105 20.832C80.2105 19.584 80.4825 18.488 81.0265 17.544C81.5705 16.6 82.3305 15.864 83.3065 15.336C84.2985 14.792 85.4425 14.52 86.7385 14.52C88.0505 14.52 89.1945 14.792 90.1705 15.336C91.1465 15.864 91.9065 16.6 92.4505 17.544C92.9945 18.488 93.2665 19.584 93.2665 20.832C93.2665 22.08 92.9865 23.192 92.4265 24.168C91.8825 25.128 91.1225 25.88 90.1465 26.424C89.1705 26.968 88.0345 27.24 86.7385 27.24ZM86.7385 24.816C87.3785 24.816 87.9545 24.656 88.4665 24.336C88.9785 24 89.3785 23.536 89.6665 22.944C89.9545 22.336 90.0985 21.624 90.0985 20.808C90.0985 19.608 89.7785 18.664 89.1385 17.976C88.5145 17.288 87.7145 16.944 86.7385 16.944C85.7625 16.944 84.9545 17.288 84.3145 17.976C83.6745 18.664 83.3545 19.608 83.3545 20.808C83.3545 21.624 83.4985 22.336 83.7865 22.944C84.0905 23.536 84.4905 24 84.9865 24.336C85.4985 24.656 86.0825 24.816 86.7385 24.816ZM95.4908 27V9.72H98.5148V27H95.4908ZM102.493 31.92L105.661 24.816L106.213 23.904L109.669 14.76H112.885L105.565 31.92H102.493ZM105.205 26.88L100.237 14.76H103.525L107.677 25.752L105.205 26.88ZM114.592 27V14.76H117.544V17.64H117.616V27H114.592ZM122.824 27V19.104C122.824 18.384 122.64 17.856 122.272 17.52C121.92 17.168 121.416 16.992 120.76 16.992C120.184 16.992 119.656 17.128 119.176 17.4C118.696 17.672 118.312 18.056 118.024 18.552C117.752 19.048 117.616 19.624 117.616 20.28L117.304 17.472C117.72 16.576 118.32 15.864 119.104 15.336C119.888 14.792 120.8 14.52 121.84 14.52C123.088 14.52 124.072 14.88 124.792 15.6C125.512 16.304 125.872 17.216 125.872 18.336V27H122.824ZM131.056 27V19.104C131.056 18.384 130.88 17.856 130.528 17.52C130.176 17.168 129.672 16.992 129.016 16.992C128.424 16.992 127.888 17.128 127.408 17.4C126.928 17.672 126.552 18.056 126.28 18.552C126.008 19.048 125.872 19.624 125.872 20.28L125.344 17.472C125.744 16.576 126.352 15.864 127.168 15.336C127.984 14.792 128.928 14.52 130 14.52C131.28 14.52 132.28 14.888 133 15.624C133.736 16.344 134.104 17.304 134.104 18.504V27H131.056ZM144.584 27C144.504 26.68 144.44 26.328 144.392 25.944C144.36 25.56 144.344 25.096 144.344 24.552H144.248V18.744C144.248 18.104 144.064 17.624 143.696 17.304C143.344 16.968 142.8 16.8 142.064 16.8C141.344 16.8 140.768 16.936 140.336 17.208C139.92 17.464 139.664 17.84 139.568 18.336H136.664C136.792 17.2 137.336 16.28 138.296 15.576C139.256 14.872 140.544 14.52 142.16 14.52C143.84 14.52 145.112 14.904 145.976 15.672C146.84 16.424 147.272 17.536 147.272 19.008V24.552C147.272 24.936 147.296 25.328 147.344 25.728C147.408 26.128 147.496 26.552 147.608 27H144.584ZM140.336 27.24C139.104 27.24 138.12 26.936 137.384 26.328C136.664 25.704 136.304 24.872 136.304 23.832C136.304 22.712 136.712 21.824 137.528 21.168C138.344 20.512 139.496 20.072 140.984 19.848L144.8 19.272V21.192L141.488 21.696C140.768 21.808 140.224 22.008 139.856 22.296C139.504 22.584 139.328 22.984 139.328 23.496C139.328 23.96 139.496 24.32 139.832 24.576C140.168 24.816 140.632 24.936 141.224 24.936C142.088 24.936 142.808 24.72 143.384 24.288C143.96 23.856 144.248 23.328 144.248 22.704L144.584 24.552C144.264 25.432 143.736 26.104 143 26.568C142.28 27.016 141.392 27.24 140.336 27.24ZM150.335 27V14.76H153.287V17.712H153.359V27H150.335ZM153.359 20.616L153.047 17.712C153.335 16.672 153.823 15.88 154.511 15.336C155.199 14.792 156.023 14.52 156.983 14.52C157.319 14.52 157.559 14.552 157.703 14.616V17.472C157.623 17.44 157.511 17.424 157.367 17.424C157.223 17.408 157.047 17.4 156.839 17.4C155.671 17.4 154.799 17.656 154.223 18.168C153.647 18.68 153.359 19.496 153.359 20.616ZM165.487 27.24C163.983 27.24 162.871 26.888 162.151 26.184C161.447 25.464 161.095 24.392 161.095 22.968V11.976L164.143 10.848V23.04C164.143 23.632 164.303 24.072 164.623 24.36C164.943 24.648 165.447 24.792 166.135 24.792C166.407 24.792 166.647 24.776 166.855 24.744C167.079 24.696 167.287 24.64 167.479 24.576V26.928C167.287 27.024 167.015 27.096 166.663 27.144C166.311 27.208 165.919 27.24 165.487 27.24ZM158.743 17.136V14.76H167.479V17.136H158.743Z" fill="#0D0D0D"/>
<path d="M58.86 43V35.8H60.12L62.72 42.74H62.34L64.92 35.8H66.2V43H65.39V36.23H65.5L62.99 43H62.01L59.5 36.29H59.61V43H58.86ZM70.9925 43C70.9658 42.8867 70.9458 42.7567 70.9325 42.61C70.9258 42.4633 70.9225 42.2767 70.9225 42.05H70.8725V39.61C70.8725 39.2233 70.7825 38.94 70.6025 38.76C70.4292 38.5733 70.1458 38.48 69.7525 38.48C69.3658 38.48 69.0558 38.56 68.8225 38.72C68.5958 38.8733 68.4692 39.0933 68.4425 39.38H67.6725C67.7058 38.8867 67.9125 38.5 68.2925 38.22C68.6725 37.94 69.1692 37.8 69.7825 37.8C70.4158 37.8 70.8858 37.95 71.1925 38.25C71.4992 38.55 71.6525 39 71.6525 39.6V42.05C71.6525 42.1967 71.6625 42.35 71.6825 42.51C71.7025 42.6633 71.7292 42.8267 71.7625 43H70.9925ZM69.2425 43.1C68.7158 43.1 68.2958 42.9733 67.9825 42.72C67.6758 42.46 67.5225 42.1067 67.5225 41.66C67.5225 41.2133 67.6758 40.8667 67.9825 40.62C68.2892 40.3733 68.7358 40.2 69.3225 40.1L71.1025 39.8V40.46L69.4425 40.72C69.0692 40.78 68.7858 40.88 68.5925 41.02C68.3992 41.16 68.3025 41.3633 68.3025 41.63C68.3025 41.89 68.3892 42.0867 68.5625 42.22C68.7425 42.3533 69.0058 42.42 69.3525 42.42C69.7992 42.42 70.1625 42.32 70.4425 42.12C70.7292 41.9133 70.8725 41.6467 70.8725 41.32L71.0025 42.03C70.8958 42.37 70.6858 42.6333 70.3725 42.82C70.0658 43.0067 69.6892 43.1 69.2425 43.1ZM73.1945 43V35.6H73.9945V43H73.1945ZM76.5245 43L73.8145 40.35L76.4245 37.9H77.5245L74.5945 40.58L74.6445 40.11L77.6245 43H76.5245ZM78.507 43V37.9H79.307V43H78.507ZM78.447 36.74V35.8H79.367V36.74H78.447ZM80.9094 43V37.9H81.6594V39.1H81.7094V43H80.9094ZM84.5594 43V39.66C84.5594 39.2733 84.4627 38.9833 84.2694 38.79C84.076 38.5967 83.7894 38.5 83.4094 38.5C83.076 38.5 82.7794 38.5733 82.5194 38.72C82.266 38.8667 82.066 39.07 81.9194 39.33C81.7794 39.59 81.7094 39.8933 81.7094 40.24L81.5794 39.03C81.7527 38.65 82.016 38.35 82.3694 38.13C82.7294 37.91 83.136 37.8 83.5894 37.8C84.1227 37.8 84.5494 37.9533 84.8694 38.26C85.196 38.56 85.3594 38.9567 85.3594 39.45V43H84.5594ZM88.9257 45.15C88.319 45.15 87.8124 45.0067 87.4057 44.72C87.0057 44.44 86.7624 44.0667 86.6757 43.6H87.4357C87.509 43.8667 87.6724 44.0767 87.9257 44.23C88.1857 44.39 88.5357 44.47 88.9757 44.47C89.4957 44.47 89.889 44.3267 90.1557 44.04C90.4224 43.76 90.5557 43.3467 90.5557 42.8V41.71L90.6557 41.73C90.5424 42.1167 90.3157 42.4267 89.9757 42.66C89.6357 42.8867 89.2324 43 88.7657 43C88.319 43 87.9257 42.8933 87.5857 42.68C87.2457 42.46 86.9824 42.1567 86.7957 41.77C86.609 41.3833 86.5157 40.9333 86.5157 40.42C86.5157 39.9 86.6124 39.4433 86.8057 39.05C86.999 38.6567 87.269 38.3533 87.6157 38.14C87.969 37.92 88.379 37.81 88.8457 37.81C89.3257 37.81 89.7257 37.9267 90.0457 38.16C90.3724 38.3933 90.589 38.7267 90.6957 39.16L90.6057 39.17V37.9H91.3557V42.8C91.3557 43.5267 91.139 44.1 90.7057 44.52C90.2724 44.94 89.679 45.15 88.9257 45.15ZM88.9657 42.31C89.4657 42.31 89.8624 42.1367 90.1557 41.79C90.449 41.4433 90.5957 40.9733 90.5957 40.38C90.5957 39.8 90.449 39.3433 90.1557 39.01C89.8624 38.67 89.4657 38.5 88.9657 38.5C88.459 38.5 88.059 38.67 87.7657 39.01C87.479 39.35 87.3357 39.8167 87.3357 40.41C87.3357 40.99 87.4824 41.4533 87.7757 41.8C88.069 42.14 88.4657 42.31 88.9657 42.31ZM96.6921 43.1C96.0654 43.1 95.5654 42.9567 95.1921 42.67C94.8188 42.3767 94.6054 41.9633 94.5521 41.43H95.3221C95.3688 41.7567 95.5121 42.0067 95.7521 42.18C95.9921 42.3533 96.3121 42.44 96.7121 42.44C97.0654 42.44 97.3421 42.3733 97.5421 42.24C97.7421 42.1067 97.8421 41.9167 97.8421 41.67C97.8421 41.4967 97.7854 41.3467 97.6721 41.22C97.5588 41.0867 97.3321 40.9767 96.9921 40.89L96.1721 40.68C95.7054 40.56 95.3554 40.3767 95.1221 40.13C94.8888 39.8767 94.7721 39.5767 94.7721 39.23C94.7721 38.79 94.9354 38.4433 95.2621 38.19C95.5888 37.93 96.0321 37.8 96.5921 37.8C97.1454 37.8 97.5954 37.9333 97.9421 38.2C98.2888 38.4667 98.4854 38.8367 98.5321 39.31H97.7621C97.7154 39.0367 97.5888 38.8267 97.3821 38.68C97.1754 38.5333 96.9021 38.46 96.5621 38.46C96.2354 38.46 95.9821 38.5233 95.8021 38.65C95.6221 38.77 95.5321 38.9433 95.5321 39.17C95.5321 39.3433 95.5954 39.4933 95.7221 39.62C95.8554 39.7467 96.0754 39.8533 96.3821 39.94L97.1821 40.16C97.6554 40.2867 98.0121 40.48 98.2521 40.74C98.4921 41 98.6121 41.3133 98.6121 41.68C98.6121 42.1267 98.4421 42.4767 98.1021 42.73C97.7621 42.9767 97.2921 43.1 96.6921 43.1ZM99.6887 43V35.8H100.489V43H99.6887ZM103.339 43V39.66C103.339 39.2733 103.242 38.9833 103.049 38.79C102.855 38.5967 102.569 38.5 102.189 38.5C101.855 38.5 101.559 38.5733 101.299 38.72C101.045 38.8667 100.845 39.07 100.699 39.33C100.559 39.59 100.489 39.8933 100.489 40.24L100.359 39.03C100.532 38.65 100.795 38.35 101.149 38.13C101.509 37.91 101.915 37.8 102.369 37.8C102.902 37.8 103.329 37.9533 103.649 38.26C103.975 38.56 104.139 38.9567 104.139 39.45V43H103.339ZM107.795 43.1C107.295 43.1 106.855 42.9833 106.475 42.75C106.095 42.5167 105.798 42.2 105.585 41.8C105.378 41.3933 105.275 40.9367 105.275 40.43C105.275 39.9167 105.382 39.4633 105.595 39.07C105.808 38.6767 106.102 38.3667 106.475 38.14C106.855 37.9133 107.295 37.8 107.795 37.8C108.302 37.8 108.742 37.9133 109.115 38.14C109.495 38.3667 109.788 38.6767 109.995 39.07C110.208 39.4633 110.315 39.9167 110.315 40.43C110.315 40.9367 110.208 41.3933 109.995 41.8C109.788 42.2 109.495 42.5167 109.115 42.75C108.742 42.9833 108.302 43.1 107.795 43.1ZM107.795 42.42C108.142 42.42 108.442 42.3367 108.695 42.17C108.948 41.9967 109.145 41.76 109.285 41.46C109.425 41.16 109.495 40.8133 109.495 40.42C109.495 39.8333 109.338 39.3633 109.025 39.01C108.718 38.6567 108.308 38.48 107.795 38.48C107.288 38.48 106.878 38.6567 106.565 39.01C106.252 39.3633 106.095 39.8333 106.095 40.42C106.095 40.8133 106.165 41.16 106.305 41.46C106.445 41.76 106.642 41.9967 106.895 42.17C107.155 42.3367 107.455 42.42 107.795 42.42ZM114.035 43.09C113.555 43.09 113.152 42.9733 112.825 42.74C112.498 42.5067 112.275 42.1767 112.155 41.75L112.315 41.73V45.05H111.515V37.9H112.265V39.09L112.155 39.06C112.282 38.6667 112.522 38.36 112.875 38.14C113.228 37.9133 113.638 37.8 114.105 37.8C114.558 37.8 114.952 37.91 115.285 38.13C115.625 38.35 115.888 38.6567 116.075 39.05C116.262 39.4433 116.355 39.9033 116.355 40.43C116.355 40.9633 116.258 41.43 116.065 41.83C115.872 42.23 115.602 42.54 115.255 42.76C114.908 42.98 114.502 43.09 114.035 43.09ZM113.915 42.39C114.422 42.39 114.818 42.2167 115.105 41.87C115.392 41.5167 115.535 41.0367 115.535 40.43C115.535 39.83 115.392 39.36 115.105 39.02C114.818 38.6733 114.422 38.5 113.915 38.5C113.408 38.5 113.008 38.6767 112.715 39.03C112.422 39.3767 112.275 39.8533 112.275 40.46C112.275 41.0533 112.422 41.5233 112.715 41.87C113.008 42.2167 113.408 42.39 113.915 42.39ZM120.099 43.09C119.619 43.09 119.216 42.9733 118.889 42.74C118.563 42.5067 118.339 42.1767 118.219 41.75L118.379 41.73V45.05H117.579V37.9H118.329V39.09L118.219 39.06C118.346 38.6667 118.586 38.36 118.939 38.14C119.293 37.9133 119.703 37.8 120.169 37.8C120.623 37.8 121.016 37.91 121.349 38.13C121.689 38.35 121.953 38.6567 122.139 39.05C122.326 39.4433 122.419 39.9033 122.419 40.43C122.419 40.9633 122.323 41.43 122.129 41.83C121.936 42.23 121.666 42.54 121.319 42.76C120.973 42.98 120.566 43.09 120.099 43.09ZM119.979 42.39C120.486 42.39 120.883 42.2167 121.169 41.87C121.456 41.5167 121.599 41.0367 121.599 40.43C121.599 39.83 121.456 39.36 121.169 39.02C120.883 38.6733 120.486 38.5 119.979 38.5C119.473 38.5 119.073 38.6767 118.779 39.03C118.486 39.3767 118.339 39.8533 118.339 40.46C118.339 41.0533 118.486 41.5233 118.779 41.87C119.073 42.2167 119.473 42.39 119.979 42.39ZM123.624 43V37.9H124.424V43H123.624ZM123.564 36.74V35.8H124.484V36.74H123.564ZM126.027 43V37.9H126.777V39.1H126.827V43H126.027ZM129.677 43V39.66C129.677 39.2733 129.58 38.9833 129.387 38.79C129.193 38.5967 128.907 38.5 128.527 38.5C128.193 38.5 127.897 38.5733 127.637 38.72C127.383 38.8667 127.183 39.07 127.037 39.33C126.897 39.59 126.827 39.8933 126.827 40.24L126.697 39.03C126.87 38.65 127.133 38.35 127.487 38.13C127.847 37.91 128.253 37.8 128.707 37.8C129.24 37.8 129.667 37.9533 129.987 38.26C130.313 38.56 130.477 38.9567 130.477 39.45V43H129.677ZM134.043 45.15C133.436 45.15 132.93 45.0067 132.523 44.72C132.123 44.44 131.88 44.0667 131.793 43.6H132.553C132.626 43.8667 132.79 44.0767 133.043 44.23C133.303 44.39 133.653 44.47 134.093 44.47C134.613 44.47 135.006 44.3267 135.273 44.04C135.54 43.76 135.673 43.3467 135.673 42.8V41.71L135.773 41.73C135.66 42.1167 135.433 42.4267 135.093 42.66C134.753 42.8867 134.35 43 133.883 43C133.436 43 133.043 42.8933 132.703 42.68C132.363 42.46 132.1 42.1567 131.913 41.77C131.726 41.3833 131.633 40.9333 131.633 40.42C131.633 39.9 131.73 39.4433 131.923 39.05C132.116 38.6567 132.386 38.3533 132.733 38.14C133.086 37.92 133.496 37.81 133.963 37.81C134.443 37.81 134.843 37.9267 135.163 38.16C135.49 38.3933 135.706 38.7267 135.813 39.16L135.723 39.17V37.9H136.473V42.8C136.473 43.5267 136.256 44.1 135.823 44.52C135.39 44.94 134.796 45.15 134.043 45.15ZM134.083 42.31C134.583 42.31 134.98 42.1367 135.273 41.79C135.566 41.4433 135.713 40.9733 135.713 40.38C135.713 39.8 135.566 39.3433 135.273 39.01C134.98 38.67 134.583 38.5 134.083 38.5C133.576 38.5 133.176 38.67 132.883 39.01C132.596 39.35 132.453 39.8167 132.453 40.41C132.453 40.99 132.6 41.4533 132.893 41.8C133.186 42.14 133.583 42.31 134.083 42.31ZM142.599 43.09C142.119 43.09 141.716 42.9733 141.389 42.74C141.063 42.5067 140.839 42.1767 140.719 41.75L140.829 41.73V43H140.079V35.8H140.879V39.09L140.769 39.06C140.896 38.6667 141.126 38.36 141.459 38.14C141.799 37.9133 142.203 37.8 142.669 37.8C143.123 37.8 143.516 37.91 143.849 38.13C144.189 38.35 144.453 38.6567 144.639 39.05C144.826 39.4433 144.919 39.9033 144.919 40.43C144.919 40.9633 144.823 41.43 144.629 41.83C144.436 42.23 144.166 42.54 143.819 42.76C143.473 42.98 143.066 43.09 142.599 43.09ZM142.479 42.39C142.986 42.39 143.383 42.2167 143.669 41.87C143.956 41.5167 144.099 41.0367 144.099 40.43C144.099 39.83 143.956 39.36 143.669 39.02C143.383 38.6733 142.986 38.5 142.479 38.5C141.973 38.5 141.573 38.6767 141.279 39.03C140.986 39.3767 140.839 39.8533 140.839 40.46C140.839 41.0533 140.986 41.5233 141.279 41.87C141.573 42.2167 141.973 42.39 142.479 42.39ZM148.234 43.1C147.747 43.1 147.317 42.9867 146.944 42.76C146.57 42.5267 146.277 42.21 146.064 41.81C145.85 41.41 145.744 40.95 145.744 40.43C145.744 39.91 145.847 39.4533 146.054 39.06C146.267 38.66 146.564 38.35 146.944 38.13C147.324 37.91 147.76 37.8 148.254 37.8C148.727 37.8 149.137 37.9033 149.484 38.11C149.837 38.3167 150.107 38.6067 150.294 38.98C150.487 39.3533 150.584 39.7933 150.584 40.3C150.584 40.3667 150.58 40.43 150.574 40.49C150.574 40.55 150.567 40.6167 150.554 40.69H146.344V40.02H150.064L149.804 40.39C149.804 39.7767 149.667 39.3067 149.394 38.98C149.127 38.6467 148.747 38.48 148.254 38.48C147.747 38.48 147.337 38.6567 147.024 39.01C146.717 39.3567 146.564 39.8267 146.564 40.42C146.564 41.0267 146.717 41.5133 147.024 41.88C147.337 42.24 147.754 42.42 148.274 42.42C148.6 42.42 148.887 42.35 149.134 42.21C149.38 42.0633 149.56 41.8567 149.674 41.59H150.434C150.267 42.0567 149.987 42.4267 149.594 42.7C149.207 42.9667 148.754 43.1 148.234 43.1ZM153.77 43.09C153.203 43.09 152.79 42.9633 152.53 42.71C152.276 42.45 152.15 42.0767 152.15 41.59V36.71L152.95 36.41V41.58C152.95 41.8667 153.023 42.0767 153.17 42.21C153.316 42.3433 153.556 42.41 153.89 42.41C154.023 42.41 154.136 42.4033 154.23 42.39C154.33 42.37 154.41 42.3467 154.47 42.32V43C154.403 43.0267 154.306 43.0467 154.18 43.06C154.06 43.08 153.923 43.09 153.77 43.09ZM151.1 38.58V37.9H154.47V38.58H151.1ZM157.715 43.09C157.148 43.09 156.735 42.9633 156.475 42.71C156.222 42.45 156.095 42.0767 156.095 41.59V36.71L156.895 36.41V41.58C156.895 41.8667 156.968 42.0767 157.115 42.21C157.262 42.3433 157.502 42.41 157.835 42.41C157.968 42.41 158.082 42.4033 158.175 42.39C158.275 42.37 158.355 42.3467 158.415 42.32V43C158.348 43.0267 158.252 43.0467 158.125 43.06C158.005 43.08 157.868 43.09 157.715 43.09ZM155.045 38.58V37.9H158.415V38.58H155.045ZM161.427 43.1C160.94 43.1 160.51 42.9867 160.137 42.76C159.764 42.5267 159.47 42.21 159.257 41.81C159.044 41.41 158.937 40.95 158.937 40.43C158.937 39.91 159.04 39.4533 159.247 39.06C159.46 38.66 159.757 38.35 160.137 38.13C160.517 37.91 160.954 37.8 161.447 37.8C161.92 37.8 162.33 37.9033 162.677 38.11C163.03 38.3167 163.3 38.6067 163.487 38.98C163.68 39.3533 163.777 39.7933 163.777 40.3C163.777 40.3667 163.774 40.43 163.767 40.49C163.767 40.55 163.76 40.6167 163.747 40.69H159.537V40.02H163.257L162.997 40.39C162.997 39.7767 162.86 39.3067 162.587 38.98C162.32 38.6467 161.94 38.48 161.447 38.48C160.94 38.48 160.53 38.6567 160.217 39.01C159.91 39.3567 159.757 39.8267 159.757 40.42C159.757 41.0267 159.91 41.5133 160.217 41.88C160.53 42.24 160.947 42.42 161.467 42.42C161.794 42.42 162.08 42.35 162.327 42.21C162.574 42.0633 162.754 41.8567 162.867 41.59H163.627C163.46 42.0567 163.18 42.4267 162.787 42.7C162.4 42.9667 161.947 43.1 161.427 43.1ZM164.982 43V37.9H165.732V39.2H165.782V43H164.982ZM165.782 40.34L165.652 39.13C165.772 38.6967 165.985 38.3667 166.292 38.14C166.598 37.9133 166.952 37.8 167.352 37.8C167.518 37.8 167.632 37.8133 167.692 37.84V38.61C167.658 38.5967 167.612 38.59 167.552 38.59C167.492 38.5833 167.418 38.58 167.332 38.58C166.825 38.58 166.438 38.7333 166.172 39.04C165.912 39.34 165.782 39.7733 165.782 40.34Z" fill="#0D0D0D" fill-opacity="0.7"/>
</svg>

